<svg version="1.1" id="Layer_1" xmlns:x="ns_extend;" xmlns:i="ns_ai;" xmlns:graph="ns_graphs;" xmlns="http://www.w3.org/2000/svg" xmlns:xlink="http://www.w3.org/1999/xlink" x="0px" y="0px" viewBox="0 0 285.5 61" style="enable-background:new 0 0 285.5 61;" xml:space="preserve">
 <style type="text/css">
  .st0{fill:#10162F;}
 </style>
 <metadata>
  <sfw xmlns="ns_sfw;">
   <slices>
   </slices>
   <sliceSourceBounds bottomLeftOrigin="true" height="61" width="285.5" x="56.4" y="169.4">
   </sliceSourceBounds>
  </sfw>
 </metadata>
 <g>
  <path class="st0" d="M11.8,41.9c-0.5-1.6-0.8-3.6-0.8-6.2c0-2.7,0.2-4.7,0.8-6.3c1.4-4.5,5.2-7,10.2-7c3.7,0,6.6,1.5,8.6,3.9
		c0.2,0.2,0.2,0.5-0.1,0.7L27.4,30c-0.3,0.2-0.5,0.2-0.7-0.1c-1.3-1.4-2.5-2.2-4.6-2.2c-2.2,0-3.9,1.1-4.6,3.3
		c-0.4,1.3-0.5,2.7-0.5,4.7c0,1.9,0.1,3.5,0.5,4.7c0.7,2.1,2.4,3.3,4.6,3.3c2,0,3.4-0.8,4.6-2.2c0.2-0.2,0.5-0.2,0.7-0.1l3.3,2.9
		c0.2,0.2,0.2,0.5,0.1,0.7c-2,2.4-4.9,3.9-8.6,3.9C17.1,48.8,13.3,46.4,11.8,41.9L11.8,41.9z M123.4,41.9c-0.5-1.6-0.8-3.6-0.8-6.2
		c0-2.7,0.2-4.7,0.8-6.3c1.4-4.5,5.2-7,10.2-7c3.7,0,6.7,1.5,8.6,3.9c0.2,0.2,0.2,0.5-0.1,0.7l-3.2,2.9c-0.2,0.2-0.5,0.2-0.7-0.1
		c-1.3-1.4-2.5-2.2-4.6-2.2c-2.2,0-3.9,1.1-4.6,3.3c-0.4,1.3-0.5,2.7-0.5,4.7c0,1.9,0.1,3.5,0.5,4.7c0.7,2.1,2.4,3.3,4.6,3.3
		c2,0,3.4-0.8,4.6-2.2c0.2-0.2,0.5-0.2,0.7-0.1l3.2,2.9c0.2,0.2,0.2,0.5,0.1,0.7c-2,2.4-4.9,3.9-8.6,3.9
		C128.6,48.8,124.9,46.4,123.4,41.9L123.4,41.9z M254.2,48.2c-0.3,0-0.5-0.2-0.5-0.6V33.1c0-3.3-1.6-5.5-4.7-5.5
		c-3,0-4.8,2.2-4.8,5.5v14.6c0,0.3-0.2,0.6-0.5,0.6H239c-0.3,0-0.5-0.2-0.5-0.6V33.1c0-3.3-1.6-5.5-4.7-5.5c-3,0-4.7,2.2-4.7,5.5
		v14.6c0,0.3-0.2,0.6-0.5,0.6h-4.8c-0.3,0-0.5-0.2-0.5-0.6V23.5c0-0.3,0.2-0.6,0.5-0.6h4.8c0.3,0,0.5,0.2,0.5,0.6v1.8h0.1
		c1.1-1.6,3.2-2.9,6.6-2.9c2.9,0,5.3,1.2,6.8,3.3h0.1c1.9-2.1,4.4-3.3,7.9-3.3c5.8,0,9,4,9,9.4v16c0,0.3-0.2,0.5-0.5,0.5L254.2,48.2
		z M266.1,57.2c-0.3,0-0.5-0.2-0.5-0.6v-4.2c0-0.3,0.2-0.5,0.5-0.5h0.9c2,0,2.9-0.9,3.7-3l0.7-2.1l-9.1-23.9
		c-0.1-0.3,0.1-0.5,0.4-0.5h5.1c0.3,0,0.5,0.2,0.6,0.5l5.6,16.5h0.1l5.4-16.5c0.1-0.3,0.3-0.5,0.6-0.5h4.9c0.3,0,0.5,0.2,0.4,0.5
		l-9.4,26.4c-2.2,6-4.2,7.9-8.4,7.9L266.1,57.2z M49.9,40.3c0.4-1.3,0.5-2.5,0.5-4.7c0-2.1-0.1-3.3-0.5-4.7
		c-0.7-2.1-2.3-3.3-4.6-3.3c-2.3,0-4,1.2-4.7,3.3c-0.4,1.3-0.5,2.5-0.5,4.7c0,2.1,0.1,3.3,0.5,4.7c0.7,2.1,2.3,3.3,4.7,3.3
		C47.6,43.6,49.2,42.4,49.9,40.3L49.9,40.3z M35,41.9c-0.5-1.8-0.9-3.5-0.9-6.2c0-2.8,0.3-4.4,0.9-6.3c1.4-4.4,5.2-7,10.2-7
		c5,0,8.8,2.5,10.2,7c0.5,1.8,0.8,3.5,0.8,6.3c0,2.8-0.2,4.4-0.8,6.2c-1.4,4.4-5.2,7-10.2,7C40.2,48.8,36.5,46.3,35,41.9L35,41.9z
		 M156.1,22.4c7.6,0,10.3,2.7,10.4,8.9v16.5c0,0.4-0.2,0.6-0.5,0.6h-4.3c-0.4,0-0.5-0.2-0.5-0.6v-1.8h-0.1c-1.1,1.7-3.5,2.9-7,2.9
		c-4.6,0-8.4-2.4-8.4-7.7c0-5.5,3.8-8,9.9-8h2c0.4,0,0.5,0.3,0.5,0.6v3.3c0,0.4-0.2,0.5-0.5,0.5h-1.1c-3.7,0-5.4,1-5.4,3.4
		c0,2.1,1.5,3.1,4.3,3.1c3.5,0,5.5-1.4,5.5-4.3v-8.4c-0.1-2.7-1.5-4-5.5-4c-2.8,0-4.5,0.8-5.7,1.8c-0.2,0.2-0.5,0.1-0.7-0.1
		l-1.9-3.5c-0.1-0.2-0.1-0.5,0.1-0.7C149.3,23.3,152,22.4,156.1,22.4L156.1,22.4z M95.2,33h7c0.2,0,0.3-0.1,0.3-0.3
		c0-0.8-0.1-1.5-0.3-2.1c-0.7-2.1-2.5-3.3-4.8-3.3c-2.3,0-4.2,1.2-4.9,3.3c-0.1,0.2-0.1,0.5-0.2,0.8v0.1c-0.2,1.1-0.2,2.1-0.3,3.5
		c0,1.2,0.1,2.4,0.3,3.6c0.1,0.4,0.2,0.7,0.3,1.1c0.8,2.5,2.8,3.8,5.5,3.8c2.8,0,4.6-1,5.8-2.4c0.2-0.3,0.5-0.3,0.8-0.1l3,2.7
		c0.2,0.2,0.2,0.5,0.1,0.7c-2.2,2.5-5.7,4.3-10.2,4.3c-5.2,0-9-2.6-10.3-7c-0.5-1.6-0.9-3.6-0.9-6.2c0-2.6,0.3-4.6,0.9-6.3
		c1.4-4.4,5.2-7,10.2-7c5.1,0,8.8,2.7,10.2,7c0.6,1.8,0.9,3.5,0.9,7.6c0,0.4-0.2,0.5-0.5,0.5H95.2c-0.2,0-0.2-0.1-0.2-0.2v-3.9
		C95,33.1,95.1,33,95.2,33L95.2,33z M81.7,12.2c0.3,0,0.5,0.2,0.6,0.3v34.6c0,0.4-0.2,0.6-0.5,0.6H77c-0.4,0-0.5-0.3-0.5-0.6v-1.9
		h-0.1c-1.1,1.7-3.2,3-6.5,3c-4.2,0-7.3-2-8.6-6.1c-0.7-1.9-0.9-3.7-0.9-7.1c0-3.4,0.3-5.2,0.9-7.1c1.3-4,4.3-6,8.4-6.1h3.6
		c0.1,0.1,0.2,0.1,0.2,0.2v4.8c0,0.1-0.1,0.2-0.2,0.2h-2c-2.2,0.1-3.8,1.2-4.4,3.3c-0.4,1.2-0.5,2.4-0.5,4.7c0,2.3,0.2,3.6,0.5,4.7
		c0.7,2.1,2.3,3.2,4.6,3.2c2.3,0,4-1.1,4.6-3.2c0.3-1.1,0.5-2.2,0.5-3.3V12.7c0-0.4,0.2-0.6,0.5-0.6L81.7,12.2L81.7,12.2z M205.8,33
		h7c0.2,0,0.3-0.1,0.3-0.3c0-0.8-0.1-1.5-0.3-2.1c-0.7-2.1-2.5-3.3-4.8-3.3c-2.3,0-4.2,1.2-4.9,3.3c-0.1,0.3-0.1,0.5-0.2,0.8v0.1
		c-0.2,1.1-0.3,2.1-0.3,3.5c0,1.2,0.1,2.4,0.3,3.6c0.1,0.4,0.2,0.7,0.3,1.1c0.8,2.5,2.8,3.8,5.5,3.8c2.8,0,4.6-1,5.8-2.4
		c0.3-0.3,0.5-0.3,0.8-0.1l3,2.7c0.2,0.2,0.2,0.5,0.1,0.7c-2.2,2.5-5.7,4.3-10.2,4.3c-5.2,0-9-2.6-10.3-7c-0.5-1.6-0.9-3.6-0.9-6.2
		c0-2.6,0.3-4.6,0.9-6.3c1.4-4.4,5.2-7,10.1-7c5.1,0,8.8,2.7,10.2,7c0.6,1.8,0.9,3.5,0.9,7.6c0,0.4-0.2,0.5-0.6,0.5h-12.7
		c-0.2,0-0.3-0.1-0.3-0.2v-3.9C205.5,33.1,205.7,33,205.8,33L205.8,33z M192.2,12.2c0.3,0,0.5,0.2,0.7,0.5v34.6
		c0,0.4-0.2,0.5-0.5,0.5h-4.8c-0.3,0-0.5-0.2-0.5-0.5v-1.9H187c-1.2,1.7-3.2,3-6.6,3c-4.2,0-7.3-2-8.6-6.1c-0.7-1.9-0.9-3.8-0.9-7.2
		c0-3.5,0.3-5.2,0.9-7.2c1.3-4,4.3-6,8.5-6.1h3.5c0.4,0,0.5,0.2,0.5,0.6v4.2c0,0.4-0.2,0.5-0.5,0.5h-2c-2.2,0.1-3.8,1.2-4.4,3.3
		c-0.4,1.2-0.5,2.4-0.5,4.7c0,2.3,0.2,3.6,0.5,4.7c0.7,2.1,2.2,3.3,4.6,3.3c2.3,0,4-1.2,4.6-3.3c0.2-0.8,0.4-1.8,0.5-3.3V12.7
		c0-0.4,0.2-0.6,0.5-0.6L192.2,12.2L192.2,12.2z M140.7,54.9c0.8,0,1,0.3,1,1V60c0,0.8-0.2,1-1,1h-16.1c-0.8,0-1-0.2-1-1v-4.1
		c0-0.8,0.1-1,1-1H140.7z M0,1c0-0.7,0.1-0.9,0-1h118.6c0.6,0,0.8,0.1,1,0v60c0,0.6-0.1,0.8,0,1c-0.3-0.1-0.4,0-1,0H0v0l0-0.1
		c0-0.1,0-0.1,0,0v0.1V1L0,1z M6,54.9h107.6c-0.1-0.1,0-0.3,0-1V6.1H6V54.9z M6,54.9">
  </path>
 </g>
</svg>