<svg aria-hidden="true" fill="none" height="32" viewBox="0 0 154 32" width="154" xmlns="http://www.w3.org/2000/svg">
<g clip-path="url(#clip0_1109_2292)">
<path d="M0.138414 11.73V7.89811H9.80164V8.78709C9.80164 9.12085 9.8113 9.44499 9.83061 9.75951C9.83061 10.1125 9.84027 10.472 9.85958 10.841C11.1761 9.78518 12.5023 8.95397 13.8285 8.34099C15.1547 7.73122 16.5356 7.42313 17.9648 7.42313C19.5614 7.42313 20.9134 7.7569 22.0175 8.42123C23.1216 9.08876 23.9971 10.0516 24.6506 11.3096C25.4682 10.6806 26.2471 10.1254 26.9907 9.64397C27.7343 9.16258 28.4682 8.75499 29.1892 8.42123C29.9135 8.08746 30.641 7.83713 31.3749 7.67025C32.1088 7.50336 32.8749 7.41992 33.6732 7.41992C34.8417 7.41992 35.8878 7.59643 36.8052 7.94625C37.7258 8.29927 38.4984 8.80313 39.1325 9.46104C39.7634 10.1189 40.2398 10.9084 40.5682 11.8359C40.8933 12.7602 41.0542 13.7968 41.0542 14.9457V27.661H44.7013V31.4641H32.3921V27.661H35.6239V16.8039C35.6239 16.008 35.5627 15.2956 35.4436 14.6665C35.3213 14.0375 35.1217 13.5048 34.8449 13.0715C34.5649 12.635 34.1947 12.3045 33.7312 12.0702C33.2676 11.8391 32.6818 11.7236 31.9768 11.7236C31.3813 11.7236 30.7891 11.8199 30.1936 12.0156C29.5981 12.2114 29.0251 12.4682 28.4682 12.7923C27.9113 13.1164 27.377 13.4823 26.8684 13.8899C26.3566 14.2975 25.8963 14.7147 25.4907 15.1383V27.661H28.9736V31.4641H16.9412V27.661H19.9767V16.9804C19.9767 15.2089 19.7127 13.8899 19.1816 13.0234C18.6537 12.1569 17.7105 11.7236 16.3554 11.7236C15.7985 11.7236 15.2609 11.7974 14.7395 11.945C14.218 12.0927 13.6998 12.3045 13.1783 12.5837C12.6568 12.8629 12.1289 13.2031 11.5914 13.6107C11.0538 14.0183 10.4776 14.4804 9.86602 15.0003V27.661H13.3746V31.4641H0V27.661H4.37131V11.7236H0.138414V11.73Z" fill="#C8102E"></path>
<path d="M72.4227 11.7878V7.90131H75.9313V0H81.3616V7.89811H87.0141V11.7846H81.3616V24.2784C81.3616 25.4626 81.4904 26.3067 81.7511 26.8041C82.0118 27.3048 82.5043 27.5551 83.2286 27.5551H87.2651V31.4705H82.1406C79.9324 31.4705 78.3358 30.88 77.3508 29.6925C76.3658 28.5083 75.8733 26.8041 75.8733 24.5833V11.7814H72.4194L72.4227 11.7878Z" fill="#C8102E"></path>
<path d="M89.6792 11.7878V7.90131H93.1879V0H98.6182V7.89811H104.271V11.7846H98.6182V24.2784C98.6182 25.4626 98.747 26.3067 99.0077 26.8041C99.2684 27.3048 99.7609 27.5551 100.485 27.5551H104.522V31.4705H99.3972C97.189 31.4705 95.5924 30.88 94.6074 29.6925C93.6224 28.5083 93.1299 26.8041 93.1299 24.5833V11.7814H89.676L89.6792 11.7878Z" fill="#C8102E"></path>
<path d="M149.043 27.5585V31.4738H133.975V27.5585H138.572V11.7879H133.975V7.90146H143.304L143.333 13.4568C143.815 12.3431 144.359 11.3996 144.961 10.6294C145.563 9.85913 146.233 9.23653 146.967 8.75513C147.701 8.27374 148.492 7.93355 149.349 7.73136C150.202 7.52918 151.122 7.42969 152.107 7.42969C152.423 7.42969 152.777 7.44894 153.166 7.48425C153.556 7.52276 153.817 7.54843 154.003 7.56769V12.5614C153.868 12.555 153.891 12.5485 153.726 12.5485C153.562 12.5485 153.369 12.5389 153.153 12.5389H152.053C150.604 12.5389 149.374 12.725 148.364 13.0941C147.35 13.4632 146.526 14.0056 145.885 14.7244C145.245 15.4433 144.775 16.3291 144.478 17.3785C144.182 18.4312 144.034 19.6283 144.034 20.9762V27.5617H149.046L149.043 27.5585Z" fill="#C8102E"></path>
<path d="M48.6187 10.777C51.123 9.04397 51.7121 8.75834 52.417 8.45346C54.3774 7.59978 56.254 7.42969 58.4429 7.42969C60.3195 7.42969 61.8968 7.63508 63.1779 8.03946C64.4591 8.44704 65.4923 9.01188 66.2842 9.73397C67.0728 10.4561 67.6394 11.3129 67.9838 12.3014C68.3282 13.2931 68.4988 14.3714 68.4988 15.5364V27.5585H72.5933V31.4738H63.2874V29.0315C62.5631 29.5867 61.8807 30.0553 61.2305 30.434C60.5802 30.8127 59.9461 31.1176 59.3216 31.3519C58.7004 31.5829 58.0695 31.7498 57.4289 31.8525C56.7884 31.9552 56.1252 32.0066 55.4364 32.0066C54.21 32.0066 53.0962 31.8172 52.0951 31.4385C51.0908 31.0598 50.2443 30.5463 49.5458 29.898C48.8505 29.2498 48.3097 28.5052 47.9299 27.6644C47.55 26.8235 47.3601 25.9378 47.3601 25.0135C47.3601 23.6238 47.6208 22.4492 48.1391 21.4865C48.6573 20.5237 49.3816 19.7406 50.3119 19.1404C51.2389 18.5403 52.3301 18.1038 53.5855 17.8343C54.8377 17.5647 56.2089 17.4331 57.6929 17.4331C58.5845 17.4331 59.4601 17.4844 60.326 17.5871C61.1886 17.6898 62.0931 17.8311 63.0427 18.0172V15.6295C63.0427 14.8721 62.914 14.2142 62.6532 13.659C62.3925 13.1037 62.0352 12.6448 61.5813 12.2854C61.1275 11.9259 60.5867 11.6563 59.9654 11.4798C59.3442 11.3033 58.6714 11.2167 57.9472 11.2167C56.4246 11.2167 55.1499 11.4381 54.1199 11.8842C53.0898 12.3271 52.1016 12.7668 48.6123 15.9504L48.6251 10.7898L48.6187 10.777ZM63.0395 21.2554C62.3346 21.2008 61.5491 21.1078 60.6865 20.9794C59.8238 20.851 58.9354 20.7836 58.0276 20.7836C57.3034 20.7836 56.6113 20.8446 55.9546 20.9633C55.2948 21.0853 54.7154 21.2971 54.2132 21.602C53.7111 21.9069 53.3119 22.3209 53.0158 22.8376C52.7196 23.3575 52.5716 24.0218 52.5716 24.837C52.5716 25.3376 52.6649 25.7998 52.8516 26.2266C53.0383 26.6534 53.3022 27.0289 53.6467 27.3499C53.9911 27.674 54.4128 27.9275 54.9149 28.1137C55.4171 28.2998 55.9836 28.3929 56.6145 28.3929C57.7283 28.3929 58.842 28.1907 59.9558 27.7831C61.0695 27.3755 62.0996 26.785 63.0459 26.0052V21.2586L63.0395 21.2554Z" fill="#C8102E"></path>
<path d="M125.863 17.5611C125.735 16.6721 125.496 15.8569 125.152 15.1188C124.807 14.3774 124.363 13.7356 123.816 13.19C123.269 12.6444 122.615 12.2176 121.853 11.9127C121.09 11.6078 120.227 11.4537 119.261 11.4537C117.163 11.4537 115.534 12.009 114.375 13.1194C113.213 14.2298 112.476 15.7125 112.16 17.5611H125.863ZM120.922 27.6928C121.418 27.5741 122.583 27.3494 123.922 25.9566C124.489 25.3661 124.943 24.721 125.229 24.1112H130.338C130.338 24.1112 129.501 27.1055 127.173 29.198C124.843 31.2905 122.815 31.6274 121.952 31.804C120.993 31.9997 119.528 31.9997 119.528 31.9997C117.484 31.9997 115.663 31.6884 114.027 31.069C112.392 30.4496 111.005 29.596 109.865 28.5144C108.723 27.4329 107.847 26.1459 107.232 24.6536C106.621 23.1645 106.312 21.5502 106.312 19.8076C106.312 18.0649 106.637 16.3544 107.287 14.8364C107.937 13.3183 108.842 12.009 110.004 10.9082C111.162 9.80737 112.534 8.95048 114.111 8.34071C115.688 7.73095 117.417 7.42285 119.29 7.42285C121.257 7.42285 122.986 7.76625 124.47 8.44983C125.953 9.13662 127.193 10.0834 128.187 11.2965C129.182 12.5096 129.929 13.9313 130.428 15.5584C130.93 17.1888 131.181 18.9443 131.181 20.8345H112.077C112.151 21.8326 112.36 22.7601 112.704 23.6106C113.049 24.4611 113.538 25.1992 114.182 25.8186C114.822 26.438 115.611 26.9258 116.548 27.2756C117.484 27.6286 118.302 27.818 119.528 27.818C119.528 27.818 120.372 27.818 120.922 27.6864V27.6928Z" fill="#C8102E"></path>
</g>
<defs>
<clipPath id="clip0_1109_2292">
<rect fill="white" height="32" width="154"></rect>
</clipPath>
</defs>
</svg>